<svg width="49" height="49" fill="none" xmlns="http://www.w3.org/2000/svg"><path d="M12.013 10.028H36.04v28.031H12.013V10.028Z" fill="#A6A6A6"/><path d="M24.027.017C10.757.017 0 10.774 0 24.044 0 37.314 10.757 48.07 24.027 48.07c13.27 0 24.027-10.758 24.027-24.027 0-13.27-10.757-24.027-24.027-24.027Zm-5.882 33.985H13.28V18.345h4.865v15.657Zm-2.463-17.58c-1.536 0-2.53-1.088-2.53-2.435 0-1.374 1.024-2.43 2.593-2.43 1.57 0 2.53 1.056 2.56 2.43 0 1.347-.99 2.436-2.623 2.436Zm20.233 17.58H31.05v-8.677c0-2.02-.706-3.391-2.466-3.391-1.344 0-2.142.928-2.495 1.822-.13.318-.162.768-.162 1.216V34h-4.869V23.338c0-1.955-.062-3.59-.127-4.996h4.227l.223 2.175h.098c.64-1.021 2.21-2.528 4.835-2.528 3.2 0 5.601 2.145 5.601 6.755v9.258Z" fill="#DBDBDB"/></svg>