<svg width="49" height="49" fill="none" xmlns="http://www.w3.org/2000/svg"><rect y=".849" width="48.054" height="48.054" rx="24.027" fill="#DBDBDB"/><path d="m12.013 20.564 11.636 6.164a.807.807 0 0 0 .755 0l11.636-6.163v10.707c0 .923-.347 1.812-.97 2.483a3.522 3.522 0 0 1-2.378 1.126l-.201.006H15.563a3.515 3.515 0 0 1-2.438-.987 3.644 3.644 0 0 1-1.106-2.423l-.006-.205V20.564Zm3.55-5.7H32.49c.906 0 1.779.354 2.438.988a3.644 3.644 0 0 1 1.106 2.423l.005.205v.204l-12.013 6.363-12.014-6.363v-.204c0-.924.347-1.812.97-2.483a3.523 3.523 0 0 1 2.379-1.127l.2-.005h16.929-16.928Z" fill="#A6A6A6"/></svg>