<svg width="49" height="49" fill="none" xmlns="http://www.w3.org/2000/svg"><rect y=".265" width="48.054" height="48.054" rx="24.027" fill="#DBDBDB"/><path d="M34.534 36.305c-12.811.018-22.534-9.82-22.52-22.52 0-.83.672-1.507 1.5-1.507h3.965c.744 0 1.376.547 1.486 1.283a18.644 18.644 0 0 0 1.524 5.101l.154.334a1.062 1.062 0 0 1-.345 1.309c-1.228.877-1.697 2.641-.74 4.017a17.768 17.768 0 0 0 4.439 4.44c1.377.956 3.141.487 4.017-.74a1.062 1.062 0 0 1 1.31-.347l.332.153a18.599 18.599 0 0 0 5.102 1.526c.735.11 1.282.742 1.282 1.487v3.963a1.503 1.503 0 0 1-1.503 1.501h-.003Z" fill="#A6A6A6"/></svg>